<svg width="97" height="24" viewBox="0 0 97 24" fill="none" xmlns="http://www.w3.org/2000/svg">
<path fill-rule="evenodd" clip-rule="evenodd" d="M23.3367 7.46651C25.5399 9.18357 26.6256 11.5582 26.6652 14.2926C26.6914 16.103 26.3718 17.8825 25.5517 19.446C25.1394 20.1481 24.6189 20.802 23.9757 21.3892C21.8985 23.2852 19.1113 23.9573 16.2648 23.9981C13.4183 24.0388 10.6127 23.4466 8.48155 21.6108C7.54044 20.8001 6.84535 19.8473 6.35442 18.8054C5.30299 18.8682 4.22527 18.5639 3.33119 17.8678L3.32997 17.8668C1.12672 16.1498 0.0410695 13.7751 0.00148101 11.0407C-0.0247292 9.2303 0.295015 7.45052 1.11513 5.88699C1.52743 5.18488 2.04773 4.53129 2.69101 3.94411C4.76812 2.04815 7.55539 1.37597 10.4019 1.33527C13.2484 1.29457 16.054 1.88677 18.1851 3.72256C19.1262 4.53324 19.8213 5.48605 20.3122 6.52788C21.3637 6.4651 22.4414 6.7694 23.3355 7.46556L23.3367 7.46651ZM4.78211 10.9077C4.78211 12.1745 5.18022 13.0616 6.07362 13.7846C6.47454 14.109 6.53808 14.7007 6.2138 15.1039C5.88952 15.5071 5.3017 15.57 4.89986 15.2446C3.56348 14.1615 2.91305 12.7437 2.91305 10.9077C2.91305 6.45635 5.43254 4.19928 10.4052 4.19928C15.3778 4.19928 17.8982 6.45635 17.8982 10.9077C17.8982 12.7493 17.2478 14.1681 15.9095 15.2455C15.7376 15.3843 15.531 15.4518 15.3254 15.4518C15.0526 15.4518 14.7806 15.3318 14.5965 15.1011C14.2732 14.6969 14.3377 14.1062 14.7404 13.7827C15.632 13.0644 16.0301 12.1773 16.0301 10.9077C16.0301 8.51744 15.3619 6.0747 10.4061 6.0747C5.45029 6.0747 4.78211 8.51837 4.78211 10.9077ZM20.1719 10.1744C20.4962 9.77209 21.084 9.70739 21.4858 10.0337V10.0328C22.8222 11.1158 23.4727 12.5336 23.4727 14.3697C23.4727 18.821 20.9522 21.0781 15.9796 21.0781C11.007 21.0781 8.48658 18.821 8.48658 14.3697C8.48658 12.528 9.13701 11.1093 10.4752 10.0318C10.8771 9.70739 11.4658 9.77115 11.7892 10.1762C12.1125 10.5804 12.0481 11.1712 11.6453 11.4947C10.7537 12.2129 10.3556 13.1 10.3556 14.3697C10.3556 16.7599 11.0238 19.2026 15.9796 19.2026C20.9354 19.2026 21.6036 16.759 21.6036 14.3697C21.6036 13.1028 21.2055 12.2158 20.3121 11.4928C19.9112 11.1683 19.8476 10.5776 20.1719 10.1744Z" fill="#2C46B1"/>
<path d="M41.0507 8.82667C41.9218 8.82667 42.6996 9.05067 43.384 9.49867C44.0809 9.93422 44.6285 10.5378 45.0267 11.3093C45.4374 12.0809 45.6427 12.9769 45.6427 13.9973C45.6427 15.0178 45.4374 15.92 45.0267 16.704C44.6285 17.4756 44.0871 18.0853 43.4027 18.5333C42.7307 18.9689 41.9716 19.1867 41.1254 19.1867C40.6276 19.1867 40.1609 19.1058 39.7254 18.944C39.2898 18.7822 38.904 18.5769 38.568 18.328C38.2445 18.0791 37.9894 17.8302 37.8027 17.5813C37.6285 17.32 37.5414 17.1022 37.5414 16.928L38.12 16.6853V18.048C38.12 18.3716 38.0142 18.6453 37.8027 18.8693C37.5911 19.0809 37.3236 19.1867 37 19.1867C36.6765 19.1867 36.4089 19.0809 36.1974 18.8693C35.9858 18.6578 35.88 18.384 35.88 18.048V6.32533C35.88 6.00178 35.9858 5.73422 36.1974 5.52266C36.4089 5.29867 36.6765 5.18667 37 5.18667C37.3236 5.18667 37.5911 5.29867 37.8027 5.52266C38.0142 5.73422 38.12 6.00178 38.12 6.32533V11.0667L37.8027 10.8987C37.8027 10.7369 37.8898 10.544 38.064 10.32C38.2382 10.0836 38.4747 9.85333 38.7734 9.62933C39.072 9.39289 39.4142 9.2 39.8 9.05067C40.1982 8.90133 40.6151 8.82667 41.0507 8.82667ZM40.7707 10.88C40.2231 10.88 39.744 11.0169 39.3334 11.2907C38.9227 11.5644 38.5991 11.9378 38.3627 12.4107C38.1387 12.8711 38.0267 13.4 38.0267 13.9973C38.0267 14.5822 38.1387 15.1173 38.3627 15.6027C38.5991 16.0756 38.9227 16.4489 39.3334 16.7227C39.744 16.9964 40.2231 17.1333 40.7707 17.1333C41.3182 17.1333 41.7911 16.9964 42.1894 16.7227C42.6 16.4489 42.9174 16.0756 43.1414 15.6027C43.3778 15.1173 43.496 14.5822 43.496 13.9973C43.496 13.4 43.3778 12.8711 43.1414 12.4107C42.9174 11.9378 42.6 11.5644 42.1894 11.2907C41.7911 11.0169 41.3182 10.88 40.7707 10.88ZM48.7214 19C48.3978 19 48.1303 18.8942 47.9187 18.6827C47.7072 18.4587 47.6014 18.1849 47.6014 17.8613V10.152C47.6014 9.82844 47.7072 9.56089 47.9187 9.34933C48.1303 9.12533 48.3978 9.01333 48.7214 9.01333C49.0449 9.01333 49.3125 9.12533 49.524 9.34933C49.7356 9.56089 49.8414 9.82844 49.8414 10.152V11.9067L49.7107 10.656C49.8476 10.3573 50.0218 10.096 50.2334 9.872C50.4574 9.63555 50.7063 9.44267 50.98 9.29333C51.2538 9.13155 51.5463 9.01333 51.8574 8.93867C52.1685 8.864 52.4796 8.82667 52.7907 8.82667C53.164 8.82667 53.4752 8.93244 53.724 9.144C53.9854 9.35555 54.116 9.60444 54.116 9.89067C54.116 10.3013 54.0103 10.6 53.7987 10.7867C53.5872 10.9609 53.3569 11.048 53.108 11.048C52.8716 11.048 52.6538 11.0044 52.4547 10.9173C52.268 10.8302 52.0503 10.7867 51.8014 10.7867C51.5774 10.7867 51.3472 10.8427 51.1107 10.9547C50.8867 11.0542 50.6752 11.216 50.476 11.44C50.2894 11.664 50.1338 11.944 50.0094 12.28C49.8974 12.6036 49.8414 12.9893 49.8414 13.4373V17.8613C49.8414 18.1849 49.7356 18.4587 49.524 18.6827C49.3125 18.8942 49.0449 19 48.7214 19ZM59.9799 19.1867C58.9221 19.1867 58.0012 18.9689 57.2172 18.5333C56.4456 18.0853 55.8483 17.4818 55.4252 16.7227C55.0145 15.9636 54.8092 15.1049 54.8092 14.1467C54.8092 13.0267 55.0332 12.0747 55.4812 11.2907C55.9416 10.4942 56.539 9.88444 57.2732 9.46133C58.0074 9.03822 58.7852 8.82667 59.6065 8.82667C60.2412 8.82667 60.8385 8.95733 61.3985 9.21867C61.971 9.48 62.475 9.84089 62.9105 10.3013C63.3461 10.7493 63.6883 11.272 63.9372 11.8693C64.1985 12.4667 64.3292 13.1013 64.3292 13.7733C64.3167 14.072 64.1985 14.3147 63.9745 14.5013C63.7505 14.688 63.4892 14.7813 63.1905 14.7813H56.0599L55.4999 12.9147H62.3505L61.9399 13.288V12.784C61.915 12.4231 61.7843 12.0996 61.5479 11.8133C61.3239 11.5271 61.0376 11.3031 60.6892 11.1413C60.3532 10.9671 59.9923 10.88 59.6065 10.88C59.2332 10.88 58.8847 10.9298 58.5612 11.0293C58.2376 11.1289 57.9576 11.2969 57.7212 11.5333C57.4847 11.7698 57.2981 12.0871 57.1612 12.4853C57.0243 12.8836 56.9559 13.3876 56.9559 13.9973C56.9559 14.6693 57.0927 15.2418 57.3665 15.7147C57.6527 16.1751 58.0136 16.5298 58.4492 16.7787C58.8972 17.0151 59.3701 17.1333 59.8679 17.1333C60.3283 17.1333 60.6954 17.096 60.9692 17.0213C61.243 16.9467 61.4607 16.8596 61.6225 16.76C61.7967 16.648 61.9523 16.5547 62.0892 16.48C62.3132 16.368 62.5247 16.312 62.7239 16.312C62.9976 16.312 63.2216 16.4053 63.3959 16.592C63.5825 16.7787 63.6759 16.9964 63.6759 17.2453C63.6759 17.5813 63.5016 17.8862 63.1532 18.16C62.8296 18.4338 62.3754 18.6764 61.7905 18.888C61.2056 19.0871 60.6021 19.1867 59.9799 19.1867ZM66.6431 9.01333C66.8796 9.01333 67.0973 9.07555 67.2965 9.2C67.4956 9.312 67.6449 9.48622 67.7445 9.72267L70.4885 15.9947L70.0778 16.1813L72.8778 9.74133C73.0893 9.24355 73.4191 9.00711 73.8671 9.032C74.1782 9.032 74.4271 9.13155 74.6138 9.33067C74.8129 9.51733 74.9125 9.75378 74.9125 10.04C74.9125 10.1271 74.8938 10.2204 74.8565 10.32C74.8316 10.4196 74.8005 10.5129 74.7631 10.6L71.2725 18.2907C71.0733 18.7387 70.756 18.9751 70.3205 19C70.084 19.0373 69.8538 18.9938 69.6298 18.8693C69.4182 18.7449 69.2565 18.552 69.1445 18.2907L65.6725 10.6C65.6476 10.5378 65.6165 10.4569 65.5791 10.3573C65.5542 10.2578 65.5418 10.1396 65.5418 10.0027C65.5418 9.77867 65.6413 9.56089 65.8405 9.34933C66.0396 9.12533 66.3071 9.01333 66.6431 9.01333ZM77.6662 18.9813C77.3053 18.9813 77.0253 18.888 76.8262 18.7013C76.6396 18.5022 76.5462 18.2222 76.5462 17.8613V17.544C76.5462 17.1831 76.6396 16.9093 76.8262 16.7227C77.0253 16.5236 77.3053 16.424 77.6662 16.424H77.9089C78.2698 16.424 78.5436 16.5236 78.7302 16.7227C78.9293 16.9093 79.0289 17.1831 79.0289 17.544V17.8613C79.0289 18.2222 78.9293 18.5022 78.7302 18.7013C78.5436 18.888 78.2698 18.9813 77.9089 18.9813H77.6662ZM83.752 17.8613C83.752 18.1849 83.64 18.4587 83.416 18.6827C83.2044 18.8942 82.9369 19 82.6133 19C82.3022 19 82.0409 18.8942 81.8293 18.6827C81.6178 18.4587 81.512 18.1849 81.512 17.8613V6.32533C81.512 6.00178 81.6178 5.73422 81.8293 5.52266C82.0533 5.29867 82.3271 5.18667 82.6507 5.18667C82.9742 5.18667 83.2356 5.29867 83.4347 5.52266C83.6462 5.73422 83.752 6.00178 83.752 6.32533V17.8613ZM93.4938 9.01333C93.8174 9.01333 94.0849 9.12533 94.2965 9.34933C94.508 9.56089 94.6138 9.82844 94.6138 10.152V18.0853C94.6138 19.2302 94.396 20.1387 93.9605 20.8107C93.5374 21.4951 92.9649 21.9867 92.2431 22.2853C91.5214 22.584 90.7125 22.7333 89.8165 22.7333C89.4183 22.7333 88.9951 22.7022 88.5471 22.64C88.0991 22.5778 87.732 22.4844 87.4458 22.36C87.0725 22.1982 86.8111 21.9929 86.6618 21.744C86.5249 21.5076 86.5 21.2524 86.5871 20.9787C86.6991 20.6178 86.8796 20.3689 87.1285 20.232C87.3774 20.1076 87.6387 20.0951 87.9125 20.1947C88.1116 20.2569 88.3729 20.3502 88.6965 20.4747C89.02 20.6116 89.3934 20.68 89.8165 20.68C90.3889 20.68 90.8618 20.5991 91.2351 20.4373C91.6209 20.288 91.9071 20.0267 92.0938 19.6533C92.2929 19.2924 92.3925 18.7947 92.3925 18.16V16.9093L92.7845 17.3573C92.5729 17.768 92.3054 18.1102 91.9818 18.384C91.6707 18.6453 91.2974 18.8444 90.8618 18.9813C90.4263 19.1182 89.9285 19.1867 89.3685 19.1867C88.7089 19.1867 88.1303 19.0373 87.6325 18.7387C87.1471 18.4276 86.7676 18.0044 86.4938 17.4693C86.22 16.9218 86.0831 16.2996 86.0831 15.6027V10.152C86.0831 9.82844 86.1889 9.56089 86.4005 9.34933C86.612 9.12533 86.8796 9.01333 87.2031 9.01333C87.5267 9.01333 87.7943 9.12533 88.0058 9.34933C88.2174 9.56089 88.3231 9.82844 88.3231 10.152V14.9307C88.3231 15.7396 88.4974 16.312 88.8458 16.648C89.2067 16.9716 89.7045 17.1333 90.3391 17.1333C90.7747 17.1333 91.1418 17.0524 91.4405 16.8907C91.7392 16.7164 91.9694 16.4676 92.1312 16.144C92.2929 15.808 92.3738 15.4036 92.3738 14.9307V10.152C92.3738 9.82844 92.4796 9.56089 92.6912 9.34933C92.9027 9.12533 93.1703 9.01333 93.4938 9.01333Z" fill="#2C46B1"/>
</svg>
